<svg width="142" height="32" fill="none" xmlns="http://www.w3.org/2000/svg"><path d="m64.845 4.518-3.069 8.451-3.069-8.45h-3.171l4.586 12.63h3.308l4.59-12.63h-3.175ZM1.965 6.323A5.913 5.913 0 0 0 .54 8.368a5.955 5.955 0 0 0-.46 2.455c-.02.848.138 1.69.462 2.472a6.03 6.03 0 0 0 1.423 2.067c1.258 1.18 3.05 1.779 5.327 1.779h1.557v-2.96H7.292c-2.641 0-4.153-1.22-4.153-3.347 0-2.129 1.512-3.349 4.153-3.349h1.557V4.518H7.292c-2.29 0-4.083.609-5.327 1.805ZM36.771 4.513a6.249 6.249 0 0 0-4.429 1.853 6.352 6.352 0 0 0-1.837 4.465 6.352 6.352 0 0 0 1.836 4.467 6.25 6.25 0 0 0 4.43 1.853h6.251v-6.675a6.34 6.34 0 0 0-1.95-4.234 6.24 6.24 0 0 0-4.3-1.729Zm3.413 6.318v3.44h-3.413a3.399 3.399 0 0 1-2.413-1.007c-.64-.645-1-1.52-1-2.433 0-.913.36-1.788 1-2.433A3.399 3.399 0 0 1 36.77 7.39a3.4 3.4 0 0 1 2.413 1.008c.64.645 1 1.52 1 2.433ZM13.831 5.26l-.16.208-.483-.971h-2.626v12.654h2.983V8.663a1.264 1.264 0 0 1 .28-.897c.192-.201.526-.3.99-.3h1.73V4.498h-.97c-.794.016-1.36.265-1.744.762ZM50.1 7.453V4.49h-2.4V.723h-3.006v12.853a3.588 3.588 0 0 0 1.038 2.52 3.53 3.53 0 0 0 2.501 1.047H50.1v-2.998h-1.334c-.283-.001-.554-.115-.754-.317a1.082 1.082 0 0 1-.312-.76V7.452h2.4ZM54.72 4.54h-2.964v12.609h2.964V4.539ZM133.73 5.953a5.226 5.226 0 0 0-3.643-1.435 5.212 5.212 0 0 0-3.655 1.437l-.047.048-.05-.05a5.211 5.211 0 0 0-3.644-1.435 5.264 5.264 0 0 0-2.195.468V4.54h-2.964v12.612h2.964v-6.977c.032-1.794.804-2.784 2.195-2.784 1.392 0 2.221 1.045 2.229 2.866v6.895h2.959v-6.9c0-1.853.787-2.864 2.2-2.864 1.412 0 2.229 1.059 2.229 2.888v6.882h2.958v-6.882c.008-1.92-.512-3.375-1.536-4.322ZM89.266 7.453V4.49h-2.4V.723h-3.002v12.853c0 .945.373 1.852 1.036 2.52a3.527 3.527 0 0 0 2.5 1.047h1.866v-2.998h-1.33c-.284-.001-.555-.115-.755-.317a1.085 1.085 0 0 1-.314-.76V7.452h2.4ZM76.161 13.544a3.358 3.358 0 0 1-1.822.72h-.28a3.412 3.412 0 0 1-1.715-.47 3.448 3.448 0 0 1-1.252-1.27h8.999l.029-.113c.124-.49.19-.993.194-1.498v-.747l-.02.019a6.329 6.329 0 0 0-.691-2.29l-.013-.026a1.444 1.444 0 0 0-.06-.108l-.037-.064a1.206 1.206 0 0 0-.063-.111l-.037-.061a6.234 6.234 0 0 0-2.27-2.208 6.172 6.172 0 0 0-3.054-.799c-.137 0-.279 0-.447.019a6.28 6.28 0 0 0-4.097 1.976 6.38 6.38 0 0 0-1.715 4.241v.747l.024-.019c.081.803.316 1.582.69 2.295v.02l.063.112.037.066c.018.037.04.072.06.106l.037.064a6.243 6.243 0 0 0 2.272 2.207 6.18 6.18 0 0 0 3.055.8c.133 0 .275 0 .446-.02a6.249 6.249 0 0 0 3.696-1.587l-2.016-2.033-.013.032Zm-2.386-6.14h.283a3.37 3.37 0 0 1 1.947.61c.572.4 1.008.967 1.248 1.626h-6.395a3.439 3.439 0 0 1 1.135-1.547 3.396 3.396 0 0 1 1.782-.69ZM25.283 13.544a3.358 3.358 0 0 1-1.822.72h-.28a3.412 3.412 0 0 1-1.715-.47 3.45 3.45 0 0 1-1.252-1.27h9l.028-.113c.124-.49.19-.993.194-1.498v-.747l-.02.019a6.328 6.328 0 0 0-.691-2.29V7.87a1.444 1.444 0 0 0-.06-.108l-.035-.064a2.478 2.478 0 0 0-.065-.111l-.037-.061a6.235 6.235 0 0 0-2.27-2.208 6.172 6.172 0 0 0-3.054-.799c-.137 0-.278 0-.446.019a6.28 6.28 0 0 0-4.098 1.976 6.38 6.38 0 0 0-1.715 4.241v.747l.024-.019c.081.803.316 1.582.69 2.295v.02l.063.112.037.066c.018.037.04.072.06.106l.037.064a6.242 6.242 0 0 0 2.272 2.207 6.18 6.18 0 0 0 3.055.8c.134 0 .262 0 .446-.02a6.25 6.25 0 0 0 3.697-1.587l-2.017-2.033-.026.032Zm-2.386-6.14h.283a3.37 3.37 0 0 1 1.948.61c.571.4 1.007.967 1.247 1.626H19.98a3.455 3.455 0 0 1 1.137-1.544 3.412 3.412 0 0 1 1.78-.693ZM109.589 4.513a6.25 6.25 0 0 0-4.424 1.856 6.352 6.352 0 0 0-1.835 4.462 6.354 6.354 0 0 0 1.837 4.467 6.25 6.25 0 0 0 4.43 1.853h6.251v-6.675a6.34 6.34 0 0 0-1.953-4.237 6.24 6.24 0 0 0-4.306-1.726Zm3.413 6.318v3.44h-3.413a3.398 3.398 0 0 1-2.413-1.007 3.456 3.456 0 0 1 0-4.866 3.398 3.398 0 0 1 5.568 1.116c.172.417.26.865.26 1.317h-.002ZM98.1 13.544a3.35 3.35 0 0 1-1.819.72h-.283a3.404 3.404 0 0 1-1.713-.469 3.44 3.44 0 0 1-1.251-1.27h8.997l.029-.114a6.36 6.36 0 0 0 .194-1.498v-.747l-.024.019a6.277 6.277 0 0 0-.69-2.29V7.87a1.701 1.701 0 0 0-.061-.108l-.034-.064-.063-.111-.036-.061a6.25 6.25 0 0 0-2.273-2.208 6.18 6.18 0 0 0-3.054-.799c-.134 0-.276 0-.446.019a6.265 6.265 0 0 0-4.1 1.973 6.364 6.364 0 0 0-1.71 4.244v.747l.023-.019c.082.803.316 1.582.69 2.295l.014.02c.018.04.038.076.06.112l.037.066.06.106.04.064a6.234 6.234 0 0 0 2.27 2.208 6.171 6.171 0 0 0 3.054.798c.136 0 .278 0 .446-.018a6.243 6.243 0 0 0 3.697-1.588l-2.016-2.033-.037.032Zm-2.386-6.14h.284a3.368 3.368 0 0 1 1.948.609 3.41 3.41 0 0 1 1.247 1.627h-6.395a3.454 3.454 0 0 1 1.138-1.545 3.412 3.412 0 0 1 1.781-.692h-.003Z" fill="#000"/><path d="M139.57 12.662c-.59 0-1.157.237-1.574.657-.418.421-.652.992-.652 1.588 0 .595.234 1.166.652 1.587.417.42.984.657 1.574.657h2.221V14.77a2.248 2.248 0 0 0-.696-1.498 2.213 2.213 0 0 0-1.525-.609Z" fill="#7F5EF3"/><path d="M51.146 28.015h1.173a2.855 2.855 0 0 1-.27.716 2.98 2.98 0 0 1-.493.692c-.203.227-.473.411-.81.552-.336.14-.711.211-1.126.211-.852 0-1.556-.282-2.111-.845-.548-.563-.822-1.299-.822-2.207 0-.908.274-1.643.822-2.207.555-.563 1.259-.845 2.111-.845.783 0 1.397.223 1.842.67.446.438.732.919.857 1.443h-1.173c-.25-.704-.759-1.056-1.526-1.056-.508 0-.93.184-1.267.551-.328.36-.492.842-.492 1.444 0 .603.164 1.088.492 1.456.337.36.76.54 1.267.54.423 0 .763-.114 1.021-.34.258-.228.427-.486.505-.775ZM54.626 28.59c.337.36.76.54 1.268.54s.926-.18 1.255-.54c.336-.368.504-.853.504-1.456 0-.602-.168-1.084-.504-1.444a1.609 1.609 0 0 0-1.255-.551c-.509 0-.931.184-1.268.551-.328.36-.492.842-.492 1.444 0 .603.164 1.088.492 1.456Zm3.367.751c-.547.563-1.247.845-2.1.845-.852 0-1.556-.282-2.111-.845-.548-.563-.821-1.299-.821-2.207 0-.908.273-1.643.82-2.207.556-.563 1.26-.845 2.113-.845.852 0 1.552.282 2.1.845.555.564.833 1.3.833 2.207 0 .908-.278 1.644-.834 2.207ZM59.414 28.19h1.114c0 .251.118.482.352.693.243.204.556.305.94.305.414 0 .73-.078.95-.234.226-.165.34-.36.34-.587a.687.687 0 0 0-.317-.587c-.211-.157-.516-.235-.915-.235h-.587v-.939h.587c.336 0 .606-.074.81-.223.203-.149.304-.329.304-.54 0-.22-.105-.4-.316-.54-.204-.149-.49-.223-.857-.223-.391 0-.684.082-.88.247a.79.79 0 0 0-.293.633h-1.173c0-.516.21-.958.633-1.326.43-.368 1.001-.552 1.713-.552.743 0 1.318.165 1.725.493.414.329.621.752.621 1.268 0 .391-.148.712-.445.962-.126.102-.27.184-.434.247v.059c.664.18.997.618.997 1.314 0 .501-.215.92-.645 1.256-.43.337-1.037.505-1.819.505-.759 0-1.35-.192-1.772-.575a1.842 1.842 0 0 1-.633-1.42ZM64.522 31.477v-2.465h.117c.5 0 .774-.293.821-.88l.352-3.932h4.165v4.812h.821v2.465h-1.173V30.07h-3.93v1.409h-1.173Zm1.76-2.465h2.522v-3.756h-1.936l-.258 2.935c-.031.281-.094.493-.188.634a.845.845 0 0 1-.14.187ZM75.37 30.069l-.117-.646h-.059a1.82 1.82 0 0 1-.422.388c-.376.25-.822.375-1.338.375-.641 0-1.153-.168-1.537-.505-.383-.336-.575-.774-.575-1.314 0-.603.2-1.076.599-1.42.406-.345 1.009-.517 1.806-.517h1.467v-.117c0-.384-.11-.685-.329-.904-.218-.22-.52-.329-.903-.329-.375 0-.665.086-.868.258-.203.165-.325.352-.364.564h-1.173c.031-.517.262-.947.692-1.292.43-.352 1.001-.528 1.713-.528.759 0 1.35.2 1.772.599.422.399.633.943.633 1.631v3.757h-.997Zm-.176-2.465v-.235h-1.408c-.43 0-.755.086-.974.258a.836.836 0 0 0-.316.681c0 .274.09.49.27.646.18.156.441.234.786.234.531 0 .938-.136 1.22-.41.281-.282.422-.673.422-1.174ZM77.6 30.069v-5.87h1.174v2.348h2.757V24.2h1.173v5.869h-1.173v-2.407h-2.757v2.407h-1.173ZM84 30.069v-5.87h1.173v4.226h.235l1.994-4.225h1.701v5.869H87.93v-4.226h-.235l-1.994 4.226H84ZM91.279 26.665h3.46c-.062-.478-.246-.861-.55-1.15-.306-.29-.689-.435-1.15-.435-.485 0-.876.145-1.174.434-.297.282-.492.666-.586 1.15Zm3.168 1.702h1.231c-.172.47-.485.892-.938 1.267-.446.368-1.013.552-1.701.552-.853 0-1.557-.282-2.112-.845-.548-.563-.821-1.299-.821-2.207 0-.908.273-1.643.82-2.207.556-.563 1.26-.845 2.113-.845.797 0 1.466.274 2.006.822.54.548.81 1.232.81 2.054 0 .07-.012.211-.036.423l-.023.164h-4.517c.062.5.254.9.575 1.197.32.298.715.446 1.185.446.328 0 .617-.078.868-.234.258-.165.438-.36.54-.587ZM103.547 28.015h1.173a2.87 2.87 0 0 1-.27.716 2.978 2.978 0 0 1-.493.692 2.21 2.21 0 0 1-.809.552c-.337.14-.712.211-1.127.211-.852 0-1.556-.282-2.111-.845-.548-.563-.822-1.299-.822-2.207 0-.908.274-1.643.822-2.207.555-.563 1.259-.845 2.111-.845.783 0 1.397.223 1.842.67.446.438.732.919.857 1.443h-1.173c-.251-.704-.759-1.056-1.526-1.056-.508 0-.93.184-1.267.551-.328.36-.492.842-.492 1.444 0 .603.164 1.088.492 1.456.337.36.759.54 1.267.54.423 0 .763-.114 1.021-.34a1.58 1.58 0 0 0 .505-.775ZM109.468 30.069l-.118-.646h-.058a1.822 1.822 0 0 1-.423.388c-.375.25-.821.375-1.337.375-.642 0-1.154-.168-1.537-.505-.383-.336-.575-.774-.575-1.314 0-.603.199-1.076.598-1.42.407-.345 1.009-.517 1.807-.517h1.467v-.117c0-.384-.11-.685-.329-.904-.219-.22-.52-.329-.903-.329-.376 0-.665.086-.868.258-.204.165-.325.352-.364.564h-1.173c.031-.517.262-.947.692-1.292.43-.352 1.001-.528 1.713-.528.758 0 1.349.2 1.771.599.423.399.634.943.634 1.631v3.757h-.997Zm-.176-2.465v-.235h-1.408c-.43 0-.755.086-.974.258a.836.836 0 0 0-.317.681c0 .274.09.49.27.646.18.156.442.234.786.234.532 0 .939-.136 1.22-.41.282-.282.423-.673.423-1.174ZM111.699 30.069v-5.87h1.173v4.226h.234l1.995-4.225h1.701v5.869h-1.173v-4.226h-.235l-1.994 4.226h-1.701Zm.821-8.393h.938c.125.509.399.763.822.763.422 0 .696-.255.821-.763h.938c-.031.47-.207.853-.528 1.15-.32.29-.731.434-1.231.434-.501 0-.912-.144-1.232-.434-.321-.297-.497-.68-.528-1.15ZM119.447 30.069v-4.754h-1.936V24.2h5.045v1.115h-1.936v4.754h-1.173ZM124.403 28.59c.336.36.758.54 1.267.54.508 0 .927-.18 1.255-.54.336-.368.505-.853.505-1.456 0-.602-.169-1.084-.505-1.444a1.608 1.608 0 0 0-1.255-.551c-.509 0-.931.184-1.267.551-.329.36-.493.842-.493 1.444 0 .603.164 1.088.493 1.456Zm3.367.751c-.548.563-1.248.845-2.1.845-.853 0-1.557-.282-2.112-.845-.548-.563-.821-1.299-.821-2.207 0-.908.273-1.643.821-2.207.555-.563 1.259-.845 2.112-.845.852 0 1.552.282 2.1.845.555.564.833 1.3.833 2.207 0 .908-.278 1.644-.833 2.207ZM129.601 30.069v-5.87h3.167c.556 0 .986.145 1.291.435.313.29.469.673.469 1.15a1.388 1.388 0 0 1-.704 1.233v.059c.133.062.27.156.411.281.274.305.411.662.411 1.068 0 .447-.172.834-.517 1.163-.336.32-.75.48-1.243.48h-3.285Zm1.173-3.463h1.819c.234 0 .418-.063.551-.188a.678.678 0 0 0 .211-.516c0-.212-.07-.38-.211-.505-.133-.133-.317-.2-.551-.2h-1.819v1.409Zm0 2.465h1.877a.82.82 0 0 0 .587-.223.718.718 0 0 0 .234-.54.719.719 0 0 0-.234-.54.82.82 0 0 0-.587-.223h-1.877v1.526Z" fill="#828D9E"/></svg>