<svg width="60" height="60" viewBox="0 0 60 60" fill="none" xmlns="http://www.w3.org/2000/svg">
<path fill-rule="evenodd" clip-rule="evenodd" d="M11.25 45H18.75C21.5114 45 23.75 47.2386 23.75 50V52.5C23.75 53.8807 22.6307 55 21.25 55H8.75C7.36929 55 6.25 53.8807 6.25 52.5V50C6.25 47.2386 8.48858 45 11.25 45Z" stroke="#142D78" stroke-width="1.5" stroke-linecap="round" stroke-linejoin="round"/>
<path fill-rule="evenodd" clip-rule="evenodd" d="M38.75 5H51.25C52.6307 5 53.75 6.11929 53.75 7.5V10C53.75 12.7614 51.5114 15 48.75 15H41.25C38.4886 15 36.25 12.7614 36.25 10V7.5C36.25 6.11929 37.3693 5 38.75 5Z" stroke="#142D78" stroke-width="1.5" stroke-linecap="round" stroke-linejoin="round"/>
<path d="M36.25 25H17.5C13.3579 25 10 28.3579 10 32.5V45" stroke="#142D78" stroke-width="1.5" stroke-linecap="round" stroke-linejoin="round"/>
<path d="M20 45V35H25" stroke="#142D78" stroke-width="1.5" stroke-linecap="round" stroke-linejoin="round"/>
<path d="M22.5 35H42.5C46.6421 35 50 31.6421 50 27.5V15" stroke="#142D78" stroke-width="1.5" stroke-linecap="round" stroke-linejoin="round"/>
<path d="M40 15V25H35" stroke="#142D78" stroke-width="1.5" stroke-linecap="round" stroke-linejoin="round"/>
</svg>
